# xmcd
#
# Track frame offsets:
# 150
# 19100
# 35856
# 49571
# 64493
# 80735
# 98613
# 117018
# 133899
# 148993
# 164695
#
# Disc length: 2393 seconds
#
#
# Revision: 0
# Processed by: cddbd v1.5.1PL0 Copyright (c) Steve Scherf et al.
# Submitted via: FreeRIP 2.80 
#
DISCID=a309570b
DTITLE=Josh Turner - Long Black Train
DYEAR=1900
DGENRE=Country
TTITLE0=Long Black Train
TTITLE1=Backwoods Boy
TTITLE2=Good Bad Woman
TTITLE3=I Had One One Time
TTITLE4=In My Dreams
TTITLE5=Jacksonville
TTITLE6=She'll Go on You
TTITLE7=The Difference Between a Woman and a Man
TTITLE8=Unburn All Our Bridges
TTITLE9=What it Ain't
TTITLE10=You Don't Mess Around With Jim
EXTD=
EXTT0=
EXTT1=
EXTT2=
EXTT3=
EXTT4=
EXTT5=
EXTT6=
EXTT7=
EXTT8=
EXTT9=
EXTT10=
PLAYORDER=
